Hittade inte denna med svensk text här på Pirate Bay så hade jag den på datorn så tänkte lägga upp den.
----------------------------------------------------------------------------------
Text: Swedish 

Source: Daybreakers (2009) DVDSCR XviD-MAX

Format                           : AVI
Format/Info                      : Audio Video Interleave
Format profile                   : OpenDML
File size                        : 900 MiB
Duration                         : 1h 33mn
Overall bit rate                 : 1 341 Kbps
Writing application              : VirtualDubMod 1.5.10.2 (build 2542/release)
Writing library                  : VirtualDubMod build 2542/release
Original source form             : MAX TORRENTZ
Copyright                        : SIGISMUNT

Video
Format                           : xvid
Codec ID                         : xvid
Duration                         : 1h 33mn
Bit rate                         : 1 209 Kbps
Width                            : 720 pixels
Height                           : 320 pixels
Display aspect ratio             : 2.25:1
Frame rate                       : 25.000 fps
Resolution                       : 24 bits
Bits/(Pixel*Frame)               : 0.210
Stream size                      : 812 MiB (90%)

Audio
ID                               : 1
Format                           : MPEG Audio
Format version                   : Version 1
Format profile                   : Layer 3
Codec ID                         : 55
Codec ID/Hint                    : MP3
Duration                         : 1h 33mn
Bit rate mode                    : Constant
Bit rate                         : 128 Kbps
Channel(s)                       : 2 channels
Sampling rate                    : 48.0 KHz
Resolution                       : 16 bits
Stream size                      : 85.9 MiB (10%)
Alignment                        : Aligned on interleaves
Interleave, duration             : 639 ms (15.98 video frames)
Interleave, preload duration     : 216 ms
Writing library                  : LAME3.96.1
 
http://www.imdb.com/title/tt0433362/
